# xmcd
#
# Track frame offsets:
# 150
# 14424
# 31664
# 47558
# 64126
# 76970
# 92486
# 104707
# 118901
# 129016
# 141778
# 155997
# 171486
# 191618
# 208051
# 222460
# 237167
# 254490
# 267685
#
# Disc length: 3742 seconds
#
#
# Revision: 0
# Processed by: cddbd v1.5.1PL2 Copyright (c) Steve Scherf et al.
# Submitted via: FreeRIP 2.944 
#
DISCID=1e0e9c13
DTITLE=Bezerra Da Silva - Especial
DYEAR=1900
DGENRE=Samba
TTITLE0=A Semente
TTITLE1=Malandragem Dá Um Tempo
TTITLE2=Defunto Grampeado
TTITLE3=Imagem do Cão
TTITLE4=Malandro Coisé
TTITLE5=Asa De Cobra
TTITLE6=Minha Sogra Parece Sapatão
TTITLE7=Defunto Caguete
TTITLE8=Deixa Uma Paia Pro Veio Queima
TTITLE9=Coco de Obrigação
TTITLE10=Pai Veio 171
TTITLE11=Pega Eu
TTITLE12=Seqüestraram Minha Sogra
TTITLE13=É Esse Aí Que É O Bom
TTITLE14=Na Hora Da Dura
TTITLE15=Dedo Duro
TTITLE16=Bicho Feroz
TTITLE17=Foi Dr. Delegado Que Disse
TTITLE18=Maloca O Frangrante
EXTD=by Crazy_Louco
EXTT0=
EXTT1=
EXTT2=
EXTT3=
EXTT4=
EXTT5=
EXTT6=
EXTT7=
EXTT8=
EXTT9=
EXTT10=
EXTT11=
EXTT12=
EXTT13=
EXTT14=
EXTT15=
EXTT16=
EXTT17=
EXTT18=
PLAYORDER=
